<?xml version="1.0" encoding="utf-8"?>
<!-- Generator: Adobe Illustrator 16.0.0, SVG Export Plug-In . SVG Version: 6.00 Build 0)  -->
<!DOCTYPE svg PUBLIC "-//W3C//DTD SVG 1.1//EN" "http://www.w3.org/Graphics/SVG/1.1/DTD/svg11.dtd">
<svg version="1.1" id="Ebene_3" xmlns="http://www.w3.org/2000/svg" xmlns:xlink="http://www.w3.org/1999/xlink" x="0px" y="0px"
	 width="207.379px" height="38.704px" viewBox="0 0 207.379 38.704" enable-background="new 0 0 207.379 38.704"
	 xml:space="preserve">
<symbol  id="Schaltfläche_2_normal" viewBox="-26.489 -26.488 52.978 52.976">
	
		<linearGradient id="SVGID_1_" gradientUnits="userSpaceOnUse" x1="-26.4888" y1="-4.882813e-004" x2="26.4888" y2="-4.882813e-004">
		<stop  offset="0.0056" style="stop-color:#809BC0"/>
		<stop  offset="0.073" style="stop-color:#353C64"/>
		<stop  offset="0.5" style="stop-color:#E4E4E8"/>
		<stop  offset="0.618" style="stop-color:#BDC9D6"/>
		<stop  offset="0.6652" style="stop-color:#B9C6D5"/>
		<stop  offset="0.7122" style="stop-color:#ADBCD0"/>
		<stop  offset="0.7592" style="stop-color:#9AAECA"/>
		<stop  offset="0.8058" style="stop-color:#7F9AC0"/>
		<stop  offset="0.809" style="stop-color:#7C98BF"/>
		<stop  offset="1" style="stop-color:#253A47"/>
	</linearGradient>
	<path fill="url(#SVGID_1_)" d="M-26.489,0c0,14.629,11.859,26.487,26.489,26.487c14.63,0,26.489-11.858,26.489-26.487
		S14.63-26.488,0-26.488C-14.629-26.488-26.489-14.629-26.489,0z"/>
	<path fill="#1D8C3D" d="M-23.312,0c0-12.854,10.457-23.311,23.312-23.311S23.312-12.854,23.312,0S12.854,23.311,0,23.311
		S-23.312,12.854-23.312,0z"/>
	<linearGradient id="SVGID_2_" gradientUnits="userSpaceOnUse" x1="4.882813e-004" y1="21.3208" x2="4.864697e-004" y2="-20.1238">
		<stop  offset="0" style="stop-color:#E4E2DF"/>
		<stop  offset="0" style="stop-color:#D5D4D4"/>
		<stop  offset="0" style="stop-color:#CBCBCD"/>
		<stop  offset="0.0562" style="stop-color:#E5E4E5"/>
		<stop  offset="0.1067" style="stop-color:#FFFFFF"/>
		<stop  offset="0.1293" style="stop-color:#F4F3F4"/>
		<stop  offset="0.1671" style="stop-color:#D4D2D4"/>
		<stop  offset="0.2155" style="stop-color:#A7A4A6"/>
		<stop  offset="0.2472" style="stop-color:#878588"/>
		<stop  offset="0.2724" style="stop-color:#8A888B"/>
		<stop  offset="0.2876" style="stop-color:#949295"/>
		<stop  offset="0.3001" style="stop-color:#A5A4A6"/>
		<stop  offset="0.3111" style="stop-color:#C0BFC1"/>
		<stop  offset="0.3146" style="stop-color:#CBCBCD"/>
		<stop  offset="0.3539" style="stop-color:#C1C0C1"/>
		<stop  offset="0.4202" style="stop-color:#A5A4A5"/>
		<stop  offset="0.5052" style="stop-color:#7C7A7A"/>
		<stop  offset="0.6047" style="stop-color:#4C4949"/>
		<stop  offset="0.6461" style="stop-color:#383636"/>
		<stop  offset="0.6663" style="stop-color:#3E3C3C"/>
		<stop  offset="0.7002" style="stop-color:#4F4D4D"/>
		<stop  offset="0.7416" style="stop-color:#6A686A"/>
		<stop  offset="0.7429" style="stop-color:#636163"/>
		<stop  offset="0.7488" style="stop-color:#464547"/>
		<stop  offset="0.7548" style="stop-color:#302F31"/>
		<stop  offset="0.761" style="stop-color:#201F21"/>
		<stop  offset="0.7673" style="stop-color:#131314"/>
		<stop  offset="0.7738" style="stop-color:#0B0B0B"/>
		<stop  offset="0.7809" style="stop-color:#090909"/>
		<stop  offset="0.7811" style="stop-color:#0A0A0A"/>
		<stop  offset="0.7928" style="stop-color:#353335"/>
		<stop  offset="0.8047" style="stop-color:#605D5F"/>
		<stop  offset="0.8168" style="stop-color:#8A878A"/>
		<stop  offset="0.8291" style="stop-color:#B1AEB0"/>
		<stop  offset="0.8416" style="stop-color:#D1D0D1"/>
		<stop  offset="0.8544" style="stop-color:#EBEAEB"/>
		<stop  offset="0.8676" style="stop-color:#FAFAFA"/>
		<stop  offset="0.882" style="stop-color:#FFFFFF"/>
		<stop  offset="0.9019" style="stop-color:#E0DEE0"/>
		<stop  offset="0.925" style="stop-color:#C5C2C6"/>
		<stop  offset="0.9487" style="stop-color:#B3B0B4"/>
		<stop  offset="0.9733" style="stop-color:#A8A5A9"/>
		<stop  offset="1" style="stop-color:#A4A1A6"/>
	</linearGradient>
	<path fill="url(#SVGID_2_)" d="M-20.649,0c0-11.385,9.264-20.648,20.649-20.648c11.386,0,20.65,9.264,20.65,20.648
		c0,11.386-9.264,20.647-20.65,20.647C-11.385,20.647-20.649,11.386-20.649,0z"/>
	
		<radialGradient id="SVGID_3_" cx="15835.5439" cy="-15977.3535" r="28.5681" gradientTransform="matrix(-1 0 0 -1 15835.4932 -15977.1357)" gradientUnits="userSpaceOnUse">
		<stop  offset="0" style="stop-color:#EBE331"/>
		<stop  offset="0.1221" style="stop-color:#E4E031"/>
		<stop  offset="0.2974" style="stop-color:#D3D731"/>
		<stop  offset="0.5049" style="stop-color:#B4C932"/>
		<stop  offset="0.737" style="stop-color:#87B634"/>
		<stop  offset="0.9868" style="stop-color:#3B9F37"/>
		<stop  offset="1" style="stop-color:#359D37"/>
	</radialGradient>
	<path fill="url(#SVGID_3_)" d="M-17.854,0c0,9.861,7.995,17.854,17.854,17.854c9.861,0,17.854-7.992,17.854-17.854
		c0-9.862-7.993-17.854-17.854-17.854C-9.86-17.854-17.854-9.862-17.854,0z"/>
	<radialGradient id="SVGID_4_" cx="0.0542" cy="0.1553" r="22.4108" gradientUnits="userSpaceOnUse">
		<stop  offset="0" style="stop-color:#90C03D"/>
		<stop  offset="0.0364" style="stop-color:#86B43C"/>
		<stop  offset="0.161" style="stop-color:#678F37"/>
		<stop  offset="0.2897" style="stop-color:#4E7231"/>
		<stop  offset="0.4207" style="stop-color:#3C5C2A"/>
		<stop  offset="0.5546" style="stop-color:#2E4B23"/>
		<stop  offset="0.6927" style="stop-color:#243E1D"/>
		<stop  offset="0.8375" style="stop-color:#1E3719"/>
		<stop  offset="1" style="stop-color:#1C3518"/>
	</radialGradient>
	<path fill="url(#SVGID_4_)" stroke="#FFFFFF" stroke-width="1.331" stroke-linecap="round" d="M12.933,0
		c0-7.143-5.791-12.934-12.934-12.934S-12.933-7.143-12.933,0S-7.143,12.934,0,12.934S12.933,7.143,12.933,0z"/>
</symbol>
<use xlink:href="#Schaltfläche_2_normal"  width="52.978" height="52.976" x="-26.489" y="-26.488" transform="matrix(1 0 0 -1 103.8755 2.6133)" display="none" overflow="visible"/>
<g>
	<path fill="#007AC2" d="M60.666,10.732v11.394c0,2.793,1.176,3.676,2.426,3.676c0.919,0,1.727-0.111,2.609-0.479l0.294,0.772
		c-1.066,0.661-2.83,1.616-4.705,1.616c-1.287,0-4.08-0.44-4.08-4.189V10.732h-2.646v-1.47h2.793L59.6,4.63h1.066v4.632h4.741v1.47
		H60.666z"/>
	<path fill="#007AC2" d="M71.69,17.605c-0.073,3.823,0.846,8.233,5.404,8.233c2.902,0,4.3-1.764,5.329-3.896l1.103,0.588
		c-0.992,2.903-3.087,5.146-7.167,5.182c-5.991,0.074-8.49-3.491-8.49-9.298c0-5.514,2.719-9.593,8.454-9.593
		c6.726,0,7.424,5.219,7.424,7.388c0,1.213-0.698,1.396-1.471,1.396H71.69z M78.674,16.208c1.029,0,1.25-0.478,1.25-1.176
		c0-1.433-0.404-4.925-3.822-4.925c-3.823,0-4.374,4.594-4.374,6.101H78.674z"/>
	<path fill="#007AC2" d="M93.079,11.761c2.426-2.131,3.529-2.94,4.852-2.94c1.434,0,1.948,0.993,1.948,1.801
		c0,1.139-0.809,2.058-1.691,2.058c-0.184,0-0.478-0.037-0.735-0.183c-1.066-0.588-1.69-0.809-2.279-0.809
		c-0.846,0-2.095,0.955-2.095,3.786v8.601c0,1.874,0.221,1.947,3.491,2.131v1.066h-9.703v-1.066
		c2.572-0.184,2.756-0.257,2.756-2.131V12.497c0-1.323-0.22-1.507-1.176-1.655l-1.396-0.184V9.74l5.586-0.919L93.079,11.761z"/>
	<path fill="#007AC2" d="M108.109,11.761c2.425-2.131,3.528-2.94,4.852-2.94c1.433,0,1.948,0.993,1.948,1.801
		c0,1.139-0.809,2.058-1.69,2.058c-0.184,0-0.478-0.037-0.736-0.183c-1.066-0.588-1.691-0.809-2.278-0.809
		c-0.846,0-2.095,0.955-2.095,3.786v8.601c0,1.874,0.221,1.947,3.491,2.131v1.066h-9.703v-1.066
		c2.573-0.184,2.757-0.257,2.757-2.131V12.497c0-1.323-0.221-1.507-1.176-1.655l-1.396-0.184V9.74l5.587-0.919L108.109,11.761z"/>
	<path fill="#007AC2" d="M131.308,22.604c0,2.315,0.625,3.014,1.287,3.161c0.551,0.146,1.36,0.073,1.875-0.037l0.221,0.882
		c-1.397,0.699-2.977,1.102-4.337,1.102c-1.286,0-1.875-0.845-2.389-2.205c-1.176,0.771-3.198,2.132-5.477,2.205
		c-3.456,0-5.293-2.462-5.293-5.218c0-1.727,0.771-3.565,3.418-4.374c2.904-0.919,6.469-1.838,7.387-2.794v-1.543
		c0-2.941-1.69-3.675-3.124-3.675c-1.47,0-2.977,0.883-3.786,3.602c-0.184,0.625-0.404,1.029-1.176,1.029
		c-0.698,0-2.059-0.552-2.059-1.728c0-2.021,3.272-4.19,7.425-4.19c5.549,0,6.027,2.757,6.027,4.889V22.604z M128,16.833
		c-0.808,0.515-2.756,1.213-4.227,1.764c-2.058,0.772-2.867,1.654-2.867,3.382c0,2.167,1.102,3.786,3.381,3.786
		c1.433,0,3.712-0.772,3.712-3.749V16.833z"/>
	<path fill="#007AC2" d="M149.351,27.272l-0.294-0.257v-1.801c-1.985,1.617-3.712,2.499-5.697,2.499
		c-4.852,0-7.682-3.638-7.682-9.077c0-3.198,0.956-5.624,2.537-7.278c1.543-1.58,3.786-2.536,6.799-2.536
		c1.69,0,3.05,0.331,4.08,0.882V3.675c0-1.396-0.221-1.581-1.176-1.69l-1.397-0.148V0.918L152.292,0l0.257,0.221v23.854
		c0,1.874,0.147,1.947,2.757,2.131v1.066H149.351z M149.094,14.555c0-0.993-0.037-1.507-0.332-2.132
		c-0.661-1.507-2.058-2.315-3.785-2.315c-3.749,0-5.478,3.308-5.478,8.086c0,4.227,1.691,7.535,5.073,7.535
		c1.912,0,3.528-0.735,4.264-2.646c0.22-0.625,0.257-1.25,0.257-2.059V14.555z"/>
	<path fill="#007AC2" d="M171.769,22.604c0,2.315,0.624,3.014,1.286,3.161c0.551,0.146,1.359,0.073,1.875-0.037l0.221,0.882
		c-1.397,0.699-2.978,1.102-4.337,1.102c-1.287,0-1.874-0.845-2.389-2.205c-1.176,0.771-3.198,2.132-5.476,2.205
		c-3.456,0-5.292-2.462-5.292-5.218c0-1.727,0.771-3.565,3.418-4.374c2.903-0.919,6.469-1.838,7.387-2.794v-1.543
		c0-2.941-1.691-3.675-3.124-3.675c-1.471,0-2.978,0.883-3.787,3.602c-0.184,0.625-0.404,1.029-1.176,1.029
		c-0.698,0-2.059-0.552-2.059-1.728c0-2.021,3.271-4.19,7.425-4.19c5.55,0,6.028,2.757,6.028,4.889V22.604z M168.46,16.833
		c-0.808,0.515-2.756,1.213-4.226,1.764c-2.059,0.772-2.868,1.654-2.868,3.382c0,2.167,1.103,3.786,3.382,3.786
		c1.433,0,3.712-0.772,3.712-3.749V16.833z"/>
	<path fill="#007AC2" d="M181.947,10.732v11.394c0,2.793,1.176,3.676,2.425,3.676c0.919,0,1.728-0.111,2.61-0.479l0.294,0.772
		c-1.067,0.661-2.831,1.616-4.705,1.616c-1.286,0-4.08-0.44-4.08-4.189V10.732h-2.646v-1.47h2.793l2.242-4.632h1.066v4.632h4.741
		v1.47H181.947z"/>
	<path fill="#007AC2" d="M203.998,22.604c0,2.315,0.625,3.014,1.287,3.161c0.551,0.146,1.359,0.073,1.874-0.037l0.22,0.882
		c-1.397,0.699-2.978,1.102-4.337,1.102c-1.287,0-1.874-0.845-2.389-2.205c-1.176,0.771-3.197,2.132-5.477,2.205
		c-3.455,0-5.292-2.462-5.292-5.218c0-1.727,0.772-3.565,3.418-4.374c2.903-0.919,6.468-1.838,7.387-2.794v-1.543
		c0-2.941-1.691-3.675-3.124-3.675c-1.47,0-2.977,0.883-3.786,3.602c-0.183,0.625-0.404,1.029-1.176,1.029
		c-0.698,0-2.059-0.552-2.059-1.728c0-2.021,3.272-4.19,7.426-4.19c5.55,0,6.027,2.757,6.027,4.889V22.604z M200.689,16.833
		c-0.809,0.515-2.756,1.213-4.227,1.764c-2.059,0.772-2.867,1.654-2.867,3.382c0,2.167,1.102,3.786,3.381,3.786
		c1.434,0,3.712-0.772,3.712-3.749V16.833z"/>
</g>
<g>
	<g>
		<path fill="#007AC2" d="M0,27.292V9.523l20.854,8.879L0,27.292z"/>
	</g>
</g>
<rect x="24.669" y="9.4" fill="#706F6F" width="23.683" height="6.694"/>
<rect x="24.669" y="20.605" fill="#BDBCBC" width="23.683" height="6.695"/>
<rect x="24.669" y="31.812" fill="#BDBCBC" width="23.683" height="6.694"/>
<g>
	<path d="M58.134,33.721l1.643,3.796l1.649-3.796l0.917,4.779h-0.516l-0.581-3.058h-0.013l-1.457,3.244l-1.451-3.244h-0.012
		L57.732,38.5h-0.516L58.134,33.721z"/>
	<path d="M63.618,33.979h2.345v0.468h-1.841v1.343h1.787v0.468h-1.787v1.775h1.841V38.5h-2.345V33.979z"/>
	<path d="M69.57,34.86c-0.181-0.312-0.396-0.492-0.78-0.492c-0.401,0-0.749,0.288-0.749,0.702c0,0.39,0.401,0.57,0.707,0.708
		l0.3,0.132c0.588,0.258,1.086,0.552,1.086,1.271c0,0.792-0.636,1.397-1.422,1.397c-0.726,0-1.265-0.468-1.409-1.169l0.492-0.138
		c0.065,0.462,0.42,0.84,0.905,0.84c0.486,0,0.93-0.372,0.93-0.882c0-0.527-0.414-0.708-0.834-0.899l-0.275-0.12
		c-0.527-0.24-0.983-0.51-0.983-1.158c0-0.702,0.594-1.151,1.266-1.151c0.503,0,0.929,0.258,1.169,0.702L69.57,34.86z"/>
	<path d="M73.62,34.86c-0.181-0.312-0.396-0.492-0.78-0.492c-0.401,0-0.749,0.288-0.749,0.702c0,0.39,0.401,0.57,0.707,0.708
		l0.3,0.132c0.588,0.258,1.086,0.552,1.086,1.271c0,0.792-0.636,1.397-1.422,1.397c-0.726,0-1.265-0.468-1.409-1.169l0.492-0.138
		c0.065,0.462,0.42,0.84,0.905,0.84c0.486,0,0.93-0.372,0.93-0.882c0-0.527-0.414-0.708-0.834-0.899l-0.275-0.12
		c-0.527-0.24-0.983-0.51-0.983-1.158c0-0.702,0.594-1.151,1.266-1.151c0.503,0,0.929,0.258,1.169,0.702L73.62,34.86z"/>
	<path d="M75.619,33.979h2.345v0.468h-1.841v1.343h1.787v0.468h-1.787v1.775h1.841V38.5h-2.345V33.979z"/>
	<path d="M79.548,33.787l3.526,3.694v-3.502h0.504v4.726l-3.526-3.688V38.5h-0.504V33.787z"/>
	<path d="M90.305,37.864c-0.401,0.36-0.882,0.714-1.445,0.714c-0.689,0-1.319-0.516-1.319-1.235c0-0.756,0.546-1.116,1.109-1.487
		l0.055-0.036c-0.204-0.282-0.45-0.587-0.45-0.959c0-0.569,0.426-0.959,0.989-0.959c0.51,0,0.96,0.36,0.96,0.888
		c0,0.54-0.408,0.833-0.798,1.127l0.953,1.217l0.51-0.594l0.366,0.3l-0.576,0.672l0.768,0.989h-0.636L90.305,37.864z M88.782,36.335
		c-0.342,0.234-0.749,0.51-0.749,0.972c0,0.426,0.371,0.815,0.797,0.815c0.456,0,0.852-0.354,1.176-0.636l-1.008-1.295
		L88.782,36.335z M89.16,35.52c0.258-0.198,0.563-0.372,0.563-0.731c0-0.276-0.228-0.462-0.491-0.462
		c-0.276,0-0.498,0.216-0.498,0.498c0,0.228,0.15,0.396,0.276,0.576l0.107,0.15L89.16,35.52z"/>
	<path d="M95.172,33.979h0.852c0.678,0,1.229,0.09,1.764,0.546c0.516,0.443,0.749,1.049,0.749,1.721c0,0.66-0.239,1.241-0.737,1.685
		c-0.54,0.48-1.079,0.57-1.787,0.57h-0.84V33.979z M96.042,38.032c0.552,0,1.014-0.078,1.427-0.468
		c0.372-0.348,0.564-0.821,0.564-1.325c0-0.516-0.198-1.014-0.588-1.355c-0.414-0.366-0.87-0.438-1.403-0.438h-0.366v3.586H96.042z"
		/>
	<path d="M104.422,36.245c0,1.301-1.067,2.333-2.357,2.333c-1.289,0-2.356-1.032-2.356-2.333c0-1.295,1.067-2.345,2.356-2.345
		C103.355,33.9,104.422,34.95,104.422,36.245z M100.212,36.239c0,1.02,0.827,1.871,1.853,1.871s1.854-0.852,1.854-1.871
		c0-1.025-0.815-1.871-1.854-1.871C101.028,34.368,100.212,35.214,100.212,36.239z"/>
	<path d="M108.233,33.979h0.678l-2.123,2.105l2.194,2.417h-0.695l-1.853-2.075l-0.126,0.126V38.5h-0.504v-4.521h0.504v1.937
		L108.233,33.979z"/>
	<path d="M110.658,36.671c0,0.336-0.012,0.72,0.198,1.007c0.198,0.276,0.582,0.432,0.911,0.432c0.324,0,0.678-0.15,0.888-0.402
		c0.24-0.288,0.222-0.684,0.222-1.038v-2.692h0.504v2.831c0,0.492-0.036,0.881-0.396,1.253c-0.312,0.336-0.762,0.516-1.218,0.516
		c-0.426,0-0.863-0.162-1.169-0.462c-0.396-0.378-0.443-0.792-0.443-1.307v-2.831h0.503V36.671z"/>
	<path d="M115.56,33.721l1.643,3.796l1.649-3.796l0.917,4.779h-0.516l-0.581-3.058h-0.013l-1.457,3.244l-1.451-3.244h-0.012
		l-0.582,3.058h-0.516L115.56,33.721z"/>
	<path d="M121.044,33.979h2.345v0.468h-1.841v1.343h1.787v0.468h-1.787v1.775h1.841V38.5h-2.345V33.979z"/>
	<path d="M124.974,33.787l3.526,3.694v-3.502h0.504v4.726l-3.526-3.688V38.5h-0.504V33.787z"/>
	<path d="M131.844,38.5h-0.504v-4.054h-1.092v-0.468h2.698v0.468h-1.103V38.5z"/>
	<path d="M134.676,38.5h-0.504v-4.521h0.504V38.5z"/>
	<path d="M136.29,33.979h2.345v0.468h-1.841v1.343h1.787v0.468h-1.787v1.775h1.841V38.5h-2.345V33.979z"/>
	<path d="M140.694,38.5h-0.504v-4.521h0.654c0.857,0,1.655,0.228,1.655,1.247c0,0.696-0.438,1.188-1.134,1.248l1.439,2.027h-0.618
		l-1.367-1.985h-0.126V38.5z M140.694,36.071h0.156c0.569,0,1.146-0.108,1.146-0.81c0-0.744-0.546-0.815-1.151-0.815h-0.15V36.071z"
		/>
	<path d="M144.138,33.979h2.345v0.468h-1.841v1.343h1.787v0.468h-1.787v1.775h1.841V38.5h-2.345V33.979z"/>
	<path d="M148.069,33.787l3.525,3.694v-3.502h0.504v4.726l-3.526-3.688V38.5h-0.503V33.787z"/>
</g>
</svg>
